<?xml version="1.0" encoding="UTF-8" standalone="no"?>
<!DOCTYPE svg PUBLIC "-//W3C//DTD SVG 1.1//EN"
 "http://www.w3.org/Graphics/SVG/1.1/DTD/svg11.dtd">
<!-- Generated by graphviz version 8.0.5 (20230430.1635)
 -->
<!-- Pages: 1 -->
<svg width="239pt" height="112pt"
 viewBox="0.00 0.00 239.14 112.39" xmlns="http://www.w3.org/2000/svg" xmlns:xlink="http://www.w3.org/1999/xlink">
<g id="graph0" class="graph" transform="scale(1 1) rotate(0) translate(4 108.39)">
<polygon fill="white" stroke="none" points="-4,4 -4,-108.39 235.14,-108.39 235.14,4 -4,4"/>
<!-- dino y -->
<g id="node1" class="node">
<title>dino y</title>
<polygon fill="lightgray" stroke="black" points="39.25,-104.39 0,-104.39 0,-85.14 39.25,-85.14 39.25,-104.39"/>
<text text-anchor="middle" x="19.63" y="-91.84" font-family="Times New Roman,serif" font-size="9.00">dino y</text>
</g>
<!-- jump -->
<g id="node6" class="node">
<title>jump</title>
<ellipse fill="lightblue" stroke="black" cx="106.63" cy="-24.57" rx="24.57" ry="24.57"/>
<text text-anchor="middle" x="106.63" y="-21.65" font-family="Times New Roman,serif" font-size="9.00">jump</text>
</g>
<!-- dino y&#45;&gt;jump -->
<g id="edge1" class="edge">
<title>dino y&#45;&gt;jump</title>
<path fill="none" stroke="green" stroke-width="0.54" d="M31,-84.85C43.35,-75.17 63.5,-59.37 79.9,-46.52"/>
<polygon fill="green" stroke="green" stroke-width="0.54" points="81.89,-49.41 87.6,-40.49 77.57,-43.9 81.89,-49.41"/>
</g>
<!-- obs x -->
<g id="node2" class="node">
<title>obs x</title>
<polygon fill="lightgray" stroke="black" points="92,-104.39 57.25,-104.39 57.25,-85.14 92,-85.14 92,-104.39"/>
<text text-anchor="middle" x="74.63" y="-91.84" font-family="Times New Roman,serif" font-size="9.00">obs x</text>
</g>
<!-- obs x&#45;&gt;jump -->
<g id="edge2" class="edge">
<title>obs x&#45;&gt;jump</title>
<path fill="none" stroke="red" stroke-width="0.13" d="M78.81,-84.85C82.24,-77.54 87.31,-66.73 92.19,-56.33"/>
<polygon fill="red" stroke="red" stroke-width="0.13" points="95.3,-57.94 96.38,-47.4 88.96,-54.97 95.3,-57.94"/>
</g>
<!-- obs top -->
<g id="node3" class="node">
<title>obs top</title>
<polygon fill="lightgray" stroke="black" points="229.5,-104.39 185.75,-104.39 185.75,-85.14 229.5,-85.14 229.5,-104.39"/>
<text text-anchor="middle" x="207.63" y="-91.84" font-family="Times New Roman,serif" font-size="9.00">obs top</text>
</g>
<!-- duck -->
<g id="node5" class="node">
<title>duck</title>
<ellipse fill="lightblue" stroke="black" cx="207.63" cy="-24.57" rx="23.51" ry="23.51"/>
<text text-anchor="middle" x="207.63" y="-21.65" font-family="Times New Roman,serif" font-size="9.00">duck</text>
</g>
<!-- obs top&#45;&gt;duck -->
<g id="edge5" class="edge">
<title>obs top&#45;&gt;duck</title>
<path fill="none" stroke="green" stroke-width="0.4" d="M207.63,-84.85C207.63,-78.05 207.63,-68.22 207.63,-58.51"/>
<polygon fill="green" stroke="green" stroke-width="0.4" points="211.13,-58.57 207.63,-48.57 204.13,-58.57 211.13,-58.57"/>
</g>
<!-- obs top&#45;&gt;jump -->
<g id="edge3" class="edge">
<title>obs top&#45;&gt;jump</title>
<path fill="none" stroke="red" stroke-width="1.05" stroke-dasharray="1,5" d="M194.42,-84.85C179.62,-74.86 155.18,-58.35 135.83,-45.29"/>
<polygon fill="red" stroke="red" stroke-width="1.05" points="138.06,-41.9 127.81,-39.2 134.14,-47.7 138.06,-41.9"/>
</g>
<!-- obs bottom -->
<g id="node4" class="node">
<title>obs bottom</title>
<polygon fill="lightgray" stroke="black" points="167.25,-104.39 110,-104.39 110,-85.14 167.25,-85.14 167.25,-104.39"/>
<text text-anchor="middle" x="138.63" y="-91.84" font-family="Times New Roman,serif" font-size="9.00">obs bottom</text>
</g>
<!-- obs bottom&#45;&gt;jump -->
<g id="edge4" class="edge">
<title>obs bottom&#45;&gt;jump</title>
<path fill="none" stroke="green" stroke-width="0.6" d="M134.44,-84.85C131.01,-77.54 125.94,-66.73 121.06,-56.33"/>
<polygon fill="green" stroke="green" stroke-width="0.6" points="124.29,-54.97 116.87,-47.4 117.95,-57.94 124.29,-54.97"/>
</g>
</g>
</svg>
