<?xml version="1.0" encoding="UTF-8" standalone="no"?>
<!DOCTYPE svg PUBLIC "-//W3C//DTD SVG 1.1//EN"
 "http://www.w3.org/Graphics/SVG/1.1/DTD/svg11.dtd">
<!-- Generated by graphviz version 2.43.0 (0)
 -->
<!-- Title: %3 Pages: 1 -->
<svg width="381pt" height="213pt"
 viewBox="0.00 0.00 380.53 212.55" xmlns="http://www.w3.org/2000/svg" xmlns:xlink="http://www.w3.org/1999/xlink">
<g id="graph0" class="graph" transform="scale(1 1) rotate(0) translate(4 208.55)">
<title>%3</title>
<polygon fill="white" stroke="transparent" points="-4,4 -4,-208.55 376.53,-208.55 376.53,4 -4,4"/>
<!-- dino y -->
<g id="node1" class="node">
<title>dino y</title>
<polygon fill="lightgray" stroke="black" points="69.03,-204.55 24.03,-204.55 24.03,-186.55 69.03,-186.55 69.03,-204.55"/>
<text text-anchor="middle" x="46.53" y="-193.35" font-family="Times,serif" font-size="9.00">dino y</text>
</g>
<!-- jump -->
<g id="node8" class="node">
<title>jump</title>
<ellipse fill="lightblue" stroke="black" cx="122.53" cy="-28.28" rx="28.07" ry="28.07"/>
<text text-anchor="middle" x="122.53" y="-26.08" font-family="Times,serif" font-size="9.00">jump</text>
</g>
<!-- dino y&#45;&gt;jump -->
<g id="edge1" class="edge">
<title>dino y&#45;&gt;jump</title>
<path fill="none" stroke="red" stroke-width="0.27" stroke-dasharray="1,5" d="M36.18,-186.41C26.93,-178.42 14.02,-165.31 8.53,-150.55 -0.46,-126.4 -4.55,-114.78 8.53,-92.57 25.02,-64.55 58.9,-48.05 85.46,-38.96"/>
<polygon fill="red" stroke="red" stroke-width="0.27" points="86.77,-42.22 95.23,-35.83 84.64,-35.55 86.77,-42.22"/>
</g>
<!-- 8531 -->
<g id="node9" class="node">
<title>8531</title>
<ellipse fill="white" stroke="black" cx="122.53" cy="-121.56" rx="28.98" ry="28.98"/>
<text text-anchor="middle" x="122.53" y="-119.36" font-family="Times,serif" font-size="9.00">8531</text>
</g>
<!-- dino y&#45;&gt;8531 -->
<g id="edge5" class="edge">
<title>dino y&#45;&gt;8531</title>
<path fill="none" stroke="red" stroke-width="0.1" d="M55.25,-186.29C64.79,-177.26 80.57,-162.3 94.46,-149.15"/>
<polygon fill="red" stroke="red" stroke-width="0.1" points="97.07,-151.49 101.93,-142.07 92.26,-146.41 97.07,-151.49"/>
</g>
<!-- 8503 -->
<g id="node10" class="node">
<title>8503</title>
<ellipse fill="white" stroke="black" cx="46.53" cy="-121.56" rx="28.98" ry="28.98"/>
<text text-anchor="middle" x="46.53" y="-119.36" font-family="Times,serif" font-size="9.00">8503</text>
</g>
<!-- dino y&#45;&gt;8503 -->
<g id="edge2" class="edge">
<title>dino y&#45;&gt;8503</title>
<path fill="none" stroke="green" stroke-width="0.19" d="M46.53,-186.29C46.53,-179.82 46.53,-170.32 46.53,-160.62"/>
<polygon fill="green" stroke="green" stroke-width="0.19" points="50.03,-160.55 46.53,-150.55 43.03,-160.55 50.03,-160.55"/>
</g>
<!-- obs x -->
<g id="node2" class="node">
<title>obs x</title>
<polygon fill="lightgray" stroke="black" points="210.03,-130.56 169.03,-130.56 169.03,-112.56 210.03,-112.56 210.03,-130.56"/>
<text text-anchor="middle" x="189.53" y="-119.36" font-family="Times,serif" font-size="9.00">obs x</text>
</g>
<!-- obs x&#45;&gt;jump -->
<g id="edge9" class="edge">
<title>obs x&#45;&gt;jump</title>
<path fill="none" stroke="red" stroke-width="0.14" d="M183.58,-112.46C174.97,-100.73 158.57,-78.39 144.94,-59.81"/>
<polygon fill="red" stroke="red" stroke-width="0.14" points="147.64,-57.58 138.9,-51.59 142,-61.73 147.64,-57.58"/>
</g>
<!-- obs top -->
<g id="node3" class="node">
<title>obs top</title>
<polygon fill="lightgray" stroke="black" points="257.53,-204.55 207.53,-204.55 207.53,-186.55 257.53,-186.55 257.53,-204.55"/>
<text text-anchor="middle" x="232.53" y="-193.35" font-family="Times,serif" font-size="9.00">obs top</text>
</g>
<!-- obs bot -->
<g id="node4" class="node">
<title>obs bot</title>
<polygon fill="lightgray" stroke="black" points="147.53,-204.55 97.53,-204.55 97.53,-186.55 147.53,-186.55 147.53,-204.55"/>
<text text-anchor="middle" x="122.53" y="-193.35" font-family="Times,serif" font-size="9.00">obs bot</text>
</g>
<!-- obs bot&#45;&gt;8531 -->
<g id="edge8" class="edge">
<title>obs bot&#45;&gt;8531</title>
<path fill="none" stroke="green" stroke-width="0.41" d="M122.53,-186.29C122.53,-179.82 122.53,-170.32 122.53,-160.62"/>
<polygon fill="green" stroke="green" stroke-width="0.41" points="126.03,-160.55 122.53,-150.55 119.03,-160.55 126.03,-160.55"/>
</g>
<!-- obs type -->
<g id="node5" class="node">
<title>obs type</title>
<polygon fill="lightgray" stroke="black" points="372.53,-204.55 316.53,-204.55 316.53,-186.55 372.53,-186.55 372.53,-204.55"/>
<text text-anchor="middle" x="344.53" y="-193.35" font-family="Times,serif" font-size="9.00">obs type</text>
</g>
<!-- duck -->
<g id="node7" class="node">
<title>duck</title>
<ellipse fill="lightblue" stroke="black" cx="344.53" cy="-121.56" rx="27.65" ry="27.65"/>
<text text-anchor="middle" x="344.53" y="-119.36" font-family="Times,serif" font-size="9.00">duck</text>
</g>
<!-- obs type&#45;&gt;duck -->
<g id="edge7" class="edge">
<title>obs type&#45;&gt;duck</title>
<path fill="none" stroke="green" stroke-width="0.43" d="M344.53,-186.29C344.53,-179.53 344.53,-169.46 344.53,-159.32"/>
<polygon fill="green" stroke="green" stroke-width="0.43" points="348.03,-159.26 344.53,-149.26 341.03,-159.26 348.03,-159.26"/>
</g>
<!-- game speed -->
<g id="node6" class="node">
<title>game speed</title>
<polygon fill="lightgray" stroke="black" points="299.03,-130.56 228.03,-130.56 228.03,-112.56 299.03,-112.56 299.03,-130.56"/>
<text text-anchor="middle" x="263.53" y="-119.36" font-family="Times,serif" font-size="9.00">game speed</text>
</g>
<!-- game speed&#45;&gt;jump -->
<g id="edge4" class="edge">
<title>game speed&#45;&gt;jump</title>
<path fill="none" stroke="green" stroke-width="0.67" d="M251.01,-112.46C229.54,-98.56 185.05,-69.76 154.5,-49.98"/>
<polygon fill="green" stroke="green" stroke-width="0.67" points="156.19,-46.91 145.89,-44.41 152.38,-52.78 156.19,-46.91"/>
</g>
<!-- 8531&#45;&gt;jump -->
<g id="edge6" class="edge">
<title>8531&#45;&gt;jump</title>
<path fill="none" stroke="red" stroke-width="0.17" d="M122.53,-92.18C122.53,-84.14 122.53,-75.27 122.53,-66.78"/>
<polygon fill="red" stroke="red" stroke-width="0.17" points="126.03,-66.71 122.53,-56.71 119.03,-66.71 126.03,-66.71"/>
</g>
<!-- 8503&#45;&gt;jump -->
<g id="edge3" class="edge">
<title>8503&#45;&gt;jump</title>
<path fill="none" stroke="green" stroke-width="0.24" d="M64.92,-98.46C74.97,-86.41 87.52,-71.33 98.34,-58.33"/>
<polygon fill="green" stroke="green" stroke-width="0.24" points="101.11,-60.47 104.82,-50.55 95.73,-55.99 101.11,-60.47"/>
</g>
</g>
</svg>
